/* XPM */
static char *a4c4a8c6f5084b3fabb9359219cbddc4boYe4FaTMfWg9RZf[] = {
/* columns rows colors chars-per-pixel */
"55 53 18 1 ",
"  c black",
". c #202020",
"X c gray22",
"o c #000040",
"O c #00004C",
"+ c #000058",
"@ c #000064",
"# c #000070",
"$ c #00007C",
"% c #000088",
"& c #000098",
"* c #0000A4",
"= c #0000B0",
"- c #0000BC",
"; c #0000C8",
": c #0000D4",
"> c #0000E0",
", c #4040FC",
/* pixels */
"X#$$$$$$$$$$$$$$$$$$$#XX%%%%%%%%%%%%%%%%%%%%%%%%%%%%XX#",
".*********************..----------------------------..=",
" ***%*$**&$&&$&&$*$##+ .-*-=$*-&##&%**%#%*-*%&*--*&# .=",
" *&$%&&&$$*&*@&&$#$$#@ .--*&&&#&+#++$**@##@##+#%%#@# .=",
" *%*#;;&$$$&%%$@+$#++@ .                             .=",
" *%$*;;@$$$*&&&%##$++o .*******************...........=",
" *&&==***&***&&##@+@#@ .*---=*&&-&&=&&=--** .****&&@..=",
" **&*==*&$@**&%%$@@+oo .*=->;=*-*&&&==***&* .*&&%&$@ .=",
" *&$&**%&$&##%%%#$$@+o .*=;-;&=**-&&*$*$&*$ .*&&&$$@ .=",
" *%%%*$$$**#+@@#@$$$+o .*===&&&=****&%@$$$@ .**&$$++ .-",
" &$%*%%#&**##@+@@@$$+o .*-===&&=--**@@%$$@+ .**&$*$+ .-",
" &%&$$*%@$+$@+@$o+oo@o .*-**====-==*@@#*@@o .*$%&$++ .-",
" &$&$@%%$@$@$@o##ooo@o .*=**&-&&*==*&&$$++@ .*%%%##@ .-",
" &&$$$#@++@$@#@oo#o@+o .*=>;%%&&%$$$%&%$@@o .**%%##@ .-",
" &$&@@#@$@oooooooooooo .*-;;%%%**$%%$%#$@+o .*$&*+++ . ",
"                       .*-**&%%***%%&@@$@+o .***&*+@ ..",
"*-=*=*****=**** ===**&& *=&*%&****$&&$$++oo .&*&*&#@ .*",
"-=*&*-=*%**$*&$ ==&--$- ****-*&***%@#$oo@+o .&&$#$#+ .*",
"-=&&%**%$&&$$&& =--=&$$ *=&*-*%$%%@$$#oo@oo .&&+++@o .*",
"=*&==&&$$$&$$$$ =-==&&@ *=***%*$$@##+++@@+o .&$+@++o .*",
"*%&=-=$$&&$&+$$ =-&$&&@ ***&&&&$@+@@+@@+ooo .&$@++oo .*",
"**%&=:$&$$@@#$$ =&-$$$@                     .          ",
"=%$%&*&$$&@#$++ =&&@$$+ .........................======",
"=*%&$&$&&$#$@$+ =-&%@+@ .====================&*..=;=;**",
"==&%=&&&&$$#+++ *-$%%@+ .=-=*---=-*=*-=$*---$*+ .=;=;;*",
"=*%$%==@$&%%#+@ *$@##+@ .=-*=;>>-:>*-**--****$+ .=;;;;*",
"*&$%*==*&$%%#+@ &$++++@ .==*-::>->::=$*$$*$$*++ .==*;*%",
"=&=&&*=*@$###++         .=--==;;**::**$$$#*$$++ .=;****",
"*%%**&**@#+@+oo .........==-===***-***$%%$$+++@ .=;;**%",
"*&%***&$#@+@@++ .====**..=**-=%%*-=$**$%%%###++ .=;;&&*",
"&%&%**$@@+++@o@ .==%*&% .=-=-=%%***$***#%%+###o .==;&&&",
"&%%$%%$@@#$$@oo .=**&%& .=--*===&*$$$**#+@+@##o .==*%=*",
"&%*&#$$#@#$$@+o .=*&%#@ .=-*$*==**$#$@###+oo+oo .==;%==",
"&*&%%$@@+OO#@+o .==%=%+ .=**-$**&$#$$@@##@oo@@o .=*;*%&",
"$&&%$$$$+OO++@o .===##@ .=$-$**$$#@$$$@@++@@@Oo .=;**&+",
"$%%$#$$$++@++++ .===*++ .=*-$**#@@+$$$@++++OOOo .=;*&$&",
"$%@#$@$$+@+o+@+ .=&&+%@ .=*$**$++++@@@@+ooooooo .=;*$&&",
"$&$@$@#+@oo+ooo .=&&=+@ .                       .*=*$@$",
"$%&%#$#+++o@o+o .==%=%+ .........................*==*$+",
"$&%$@#$#ooooooo .==%%+@ .**********************..*=*-*$",
"                .==$$++ .*------=*******&%$-&*$ .*;**-%",
".....++##%%%$#@..*=$$$+ .=-;;-**==;-&&**&$%$%&$ .****%%",
".&*=-----------..**%$$@ .=-;;;====--$$$$***&&$@ .*;*$#+",
".*-----=*=-***- .**&+@@ .=----::===$$$$$$&$$#&@ .*=%#@+",
".*-==::=---&*-- .*&%+++ .=--=-:::$*&$$###%$$$$@ .**#@#+",
".---=::-&&*--&= .       .*=-=--::-**&$##@@+$$$@ .%$$+++",
".-*=*===&&&-*%% .........**=;&&-*-****$$@@$@+OO .      ",
".--=&%==*&&*--* .--=**&..**;;&&&=***$$&%#@@++oo .......",
".--&*-=%*===$** .-$-%&% .*---=&&---*$$$$@@@++oo .====--",
".----*%-%=$$*%* .-*==&$ .*=**===----*$%#+@@@#+O .==**==",
".-*-&**-=&$O$** .--$*$# .*-***&*----***++++@##@ .=*=::=",
".-=&&->-*%*$$** .-=**$* .*--**-%%---***#++@+OOO .=--:;;",
".-*-*>,>&&*&%$% .-=*$*# .**-&&$$$%***$$$@@+++oo .=&-&;;"
};
